REM DIRINDEX 1\2\4\18,1\2\4\19,1\2\5\20,1\2\5\21,1\2\6\22,1\2\7\23,1\2\8\24,1\2\8\25,1\2\9\26,1\2\10\27,1\3\11\28,1\3\11\29,1\3\11\30,1\3\11\31,1\3\12\32,1\3\12\33,1\3\12\34,1\3\12\35,1\3\13\36,1\3\13\37,1\3\14\38,1\3\14\39,1\3\15\40,1\3\15\41,1\3\15\42,1\3\16\43,1\3\16\44,1\3\17\45,1\3\17\46
REM DIRNAME cjc024,folder01,folder02,folder03,folder04,folder05,folder06,folder07,folder08,folder09,folder10,folder11,folder12,folder13,folder14,folder15,folder16,folder17,folder18,folder19,folder20,folder21,folder22,folder23,folder24,folder25,folder26,folder27,folder28,folder29,folder30,folder31,folder32,folder33,folder34,folder35,folder36,folder37,folder38,folder39,folder40,folder41,folder42,folder43,folder44,folder45
TITLE ""
FILE "11.mp3" MP3
  TRACK 01 AUDIO
    TITLE "0:"
    INDEX 01 00:00:00
  TRACK 02 AUDIO
    TITLE "39:cjc024_6248"
    INDEX 01 00:00:13
  TRACK 03 AUDIO
    TITLE "0:"
    INDEX 01 00:01:71
  TRACK 04 AUDIO
    TITLE "38:cjc024_6249"
    INDEX 01 00:02:34
  TRACK 05 AUDIO
    TITLE "0:"
    INDEX 01 00:03:43
  TRACK 06 AUDIO
    TITLE "38:cjc024_6250"
    INDEX 01 00:04:07
  TRACK 07 AUDIO
    TITLE "0:"
    INDEX 01 00:05:24
  TRACK 08 AUDIO
    TITLE "39:cjc024_6251"
    INDEX 01 00:06:12
  TRACK 09 AUDIO
    TITLE "0:"
    INDEX 01 00:08:21
  TRACK 10 AUDIO
    TITLE "38:cjc024_6252"
    INDEX 01 00:08:58
  TRACK 11 AUDIO
    TITLE "0:"
    INDEX 01 00:09:71
  TRACK 12 AUDIO
    TITLE "38:cjc024_6253"
    INDEX 01 00:10:33
  TRACK 13 AUDIO
    TITLE "0:"
    INDEX 01 00:11:56
  TRACK 14 AUDIO
    TITLE "38:cjc024_6254"
    INDEX 01 00:12:16
  TRACK 15 AUDIO
    TITLE "0:"
    INDEX 01 00:13:57
  TRACK 16 AUDIO
    TITLE "39:cjc024_6255"
    INDEX 01 00:14:45
  TRACK 17 AUDIO
    TITLE "0:"
    INDEX 01 00:16:73
  TRACK 18 AUDIO
    TITLE "38:cjc024_6256"
    INDEX 01 00:17:35
  TRACK 19 AUDIO
    TITLE "0:"
    INDEX 01 00:18:25
  TRACK 20 AUDIO
    TITLE "38:cjc024_6257"
    INDEX 01 00:18:62
  TRACK 21 AUDIO
    TITLE "0:"
    INDEX 01 00:20:06
  TRACK 22 AUDIO
    TITLE "39:cjc024_6258"
    INDEX 01 00:20:67
  TRACK 23 AUDIO
    TITLE "0:"
    INDEX 01 00:22:44
  TRACK 24 AUDIO
    TITLE "38:cjc024_6259"
    INDEX 01 00:23:08
  TRACK 25 AUDIO
    TITLE "0:"
    INDEX 01 00:24:39
  TRACK 26 AUDIO
    TITLE "39:cjc024_6260"
    INDEX 01 00:25:33
  TRACK 27 AUDIO
    TITLE "0:"
    INDEX 01 00:27:24
  TRACK 28 AUDIO
    TITLE "38:cjc024_6261"
    INDEX 01 00:27:61
  TRACK 29 AUDIO
    TITLE "0:"
    INDEX 01 00:29:15
  TRACK 30 AUDIO
    TITLE "39:cjc024_6262"
    INDEX 01 00:30:03
  TRACK 31 AUDIO
    TITLE "0:"
    INDEX 01 00:31:65
  TRACK 32 AUDIO
    TITLE "38:cjc024_6263"
    INDEX 01 00:32:25
  TRACK 33 AUDIO
    TITLE "0:"
    INDEX 01 00:33:54
  TRACK 34 AUDIO
    TITLE "39:cjc024_6264"
    INDEX 01 00:34:42
  TRACK 35 AUDIO
    TITLE "0:"
    INDEX 01 00:36:60
  TRACK 36 AUDIO
    TITLE "38:cjc024_6265"
    INDEX 01 00:37:22
  TRACK 37 AUDIO
    TITLE "0:"
    INDEX 01 00:38:59
  TRACK 38 AUDIO
    TITLE "39:cjc024_6266"
    INDEX 01 00:39:51
  TRACK 39 AUDIO
    TITLE "0:"
    INDEX 01 00:41:40
  TRACK 40 AUDIO
    TITLE "38:cjc024_6267"
    INDEX 01 00:42:02
  TRACK 41 AUDIO
    TITLE "0:"
    INDEX 01 00:43:23
  TRACK 42 AUDIO
    TITLE "39:cjc024_6268"
    INDEX 01 00:44:11
  TRACK 43 AUDIO
    TITLE "0:"
    INDEX 01 00:45:30
  TRACK 44 AUDIO
    TITLE "38:cjc024_6269"
    INDEX 01 00:45:67
  TRACK 45 AUDIO
    TITLE "0:"
    INDEX 01 00:47:13
  TRACK 46 AUDIO
    TITLE "39:cjc024_6270"
    INDEX 01 00:48:00
  TRACK 47 AUDIO
    TITLE "0:"
    INDEX 01 00:51:71
  TRACK 48 AUDIO
    TITLE "38:cjc024_6271"
    INDEX 01 00:52:36
  TRACK 49 AUDIO
    TITLE "0:"
    INDEX 01 00:53:33
  TRACK 50 AUDIO
    TITLE "39:cjc024_6272"
    INDEX 01 00:54:21
  TRACK 51 AUDIO
    TITLE "0:"
    INDEX 01 00:56:25
  TRACK 52 AUDIO
    TITLE "38:cjc024_6273"
    INDEX 01 00:56:65
  TRACK 53 AUDIO
    TITLE "0:"
    INDEX 01 00:58:24
  TRACK 54 AUDIO
    TITLE "39:cjc024_6274"
    INDEX 01 00:59:12
  TRACK 55 AUDIO
    TITLE "0:"
    INDEX 01 01:01:15
  TRACK 56 AUDIO
    TITLE "38:cjc024_6275"
    INDEX 01 01:01:52
  TRACK 57 AUDIO
    TITLE "0:"
    INDEX 01 01:02:59
  TRACK 58 AUDIO
    TITLE "39:cjc024_6276"
    INDEX 01 01:03:47
  TRACK 59 AUDIO
    TITLE "0:"
    INDEX 01 01:05:48
  TRACK 60 AUDIO
    TITLE "38:cjc024_6277"
    INDEX 01 01:06:10
  TRACK 61 AUDIO
    TITLE "0:"
    INDEX 01 01:07:27
  TRACK 62 AUDIO
    TITLE "39:cjc024_6278"
    INDEX 01 01:08:15
  TRACK 63 AUDIO
    TITLE "0:"
    INDEX 01 01:10:35
  TRACK 64 AUDIO
    TITLE "38:cjc024_6279"
    INDEX 01 01:10:73
  TRACK 65 AUDIO
    TITLE "0:"
    INDEX 01 01:12:13
  TRACK 66 AUDIO
    TITLE "39:cjc024_6280"
    INDEX 01 01:13:00
  TRACK 67 AUDIO
    TITLE "0:"
    INDEX 01 01:14:66
  TRACK 68 AUDIO
    TITLE "38:cjc024_6281"
    INDEX 01 01:15:31
  TRACK 69 AUDIO
    TITLE "0:"
    INDEX 01 01:16:48
  TRACK 70 AUDIO
    TITLE "38:cjc024_6282"
    INDEX 01 01:17:10
  TRACK 71 AUDIO
    TITLE "0:"
    INDEX 01 01:18:33
  TRACK 72 AUDIO
    TITLE "39:cjc024_6283"
    INDEX 01 01:19:21
  TRACK 73 AUDIO
    TITLE "0:"
    INDEX 01 01:21:35
  TRACK 74 AUDIO
    TITLE "38:cjc024_6284"
    INDEX 01 01:22:03
  TRACK 75 AUDIO
    TITLE "0:"
    INDEX 01 01:23:15
  TRACK 76 AUDIO
    TITLE "38:cjc024_6285"
    INDEX 01 01:23:56
  TRACK 77 AUDIO
    TITLE "0:"
    INDEX 01 01:24:61
  TRACK 78 AUDIO
    TITLE "38:cjc024_6286"
    INDEX 01 01:25:25
  TRACK 79 AUDIO
    TITLE "0:"
    INDEX 01 01:26:44
  TRACK 80 AUDIO
    TITLE "39:cjc024_6287"
    INDEX 01 01:27:32
  TRACK 81 AUDIO
    TITLE "0:"
    INDEX 01 01:29:21
  TRACK 82 AUDIO
    TITLE "38:cjc024_6288"
    INDEX 01 01:29:58
  TRACK 83 AUDIO
    TITLE "0:"
    INDEX 01 01:30:67
  TRACK 84 AUDIO
    TITLE "39:cjc024_6289"
    INDEX 01 01:31:55
  TRACK 85 AUDIO
    TITLE "0:"
    INDEX 01 01:34:48
  TRACK 86 AUDIO
    TITLE "38:cjc024_6290"
    INDEX 01 01:35:08
  TRACK 87 AUDIO
    TITLE "0:"
    INDEX 01 01:36:33
  TRACK 88 AUDIO
    TITLE "39:cjc024_6291"
    INDEX 01 01:37:21
  TRACK 89 AUDIO
    TITLE "0:"
    INDEX 01 01:39:14
  TRACK 90 AUDIO
    TITLE "38:cjc024_6292"
    INDEX 01 01:39:49
  TRACK 91 AUDIO
    TITLE "0:"
    INDEX 01 01:41:05
  TRACK 92 AUDIO
    TITLE "39:cjc024_6293"
    INDEX 01 01:41:63
  TRACK 93 AUDIO
    TITLE "0:"
    INDEX 01 01:44:11
  TRACK 94 AUDIO
    TITLE "38:cjc024_6294"
    INDEX 01 01:44:48
  TRACK 95 AUDIO
    TITLE "0:"
    INDEX 01 01:45:63
  TRACK 96 AUDIO
    TITLE "39:cjc024_6295"
    INDEX 01 01:46:51
  TRACK 97 AUDIO
    TITLE "0:"
    INDEX 01 01:48:67
  TRACK 98 AUDIO
    TITLE "38:cjc024_6296"
    INDEX 01 01:49:28
  TRACK 99 AUDIO
    TITLE "0:"
    INDEX 01 01:50:53
  TRACK 100 AUDIO
    TITLE "39:cjc024_6297"
    INDEX 01 01:51:38
  TRACK 101 AUDIO
    TITLE "0:"
    INDEX 01 01:53:27
  TRACK 102 AUDIO
    TITLE "38:cjc024_6298"
    INDEX 01 01:53:63
  TRACK 103 AUDIO
    TITLE "0:"
    INDEX 01 01:55:24
  TRACK 104 AUDIO
    TITLE "39:cjc024_6299"
    INDEX 01 01:56:12
  TRACK 105 AUDIO
    TITLE "0:"
    INDEX 01 01:58:36
  TRACK 106 AUDIO
    TITLE "38:cjc024_6300"
    INDEX 01 01:59:03
  TRACK 107 AUDIO
    TITLE "0:"
    INDEX 01 02:00:53
  TRACK 108 AUDIO
    TITLE "39:cjc024_6301"
    INDEX 01 02:01:43
  TRACK 109 AUDIO
    TITLE "0:"
    INDEX 01 02:06:12
  TRACK 110 AUDIO
    TITLE "38:cjc024_6302"
    INDEX 01 02:06:52
  TRACK 111 AUDIO
    TITLE "0:"
    INDEX 01 02:08:21
  TRACK 112 AUDIO
    TITLE "39:cjc024_6303"
    INDEX 01 02:09:05
  TRACK 113 AUDIO
    TITLE "0:"
    INDEX 01 02:10:30
  TRACK 114 AUDIO
    TITLE "38:cjc024_6304"
    INDEX 01 02:10:69
  TRACK 115 AUDIO
    TITLE "0:"
    INDEX 01 02:12:13
  TRACK 116 AUDIO
    TITLE "39:cjc024_6305"
    INDEX 01 02:13:01
  TRACK 117 AUDIO
    TITLE "0:"
    INDEX 01 02:14:33
  TRACK 118 AUDIO
    TITLE "38:cjc024_6306"
    INDEX 01 02:14:71
  TRACK 119 AUDIO
    TITLE "0:"
    INDEX 01 02:16:03
  TRACK 120 AUDIO
    TITLE "39:cjc024_6307"
    INDEX 01 02:16:70
  TRACK 121 AUDIO
    TITLE "0:"
    INDEX 01 02:18:59
  TRACK 122 AUDIO
    TITLE "38:cjc024_6308"
    INDEX 01 02:19:21
  TRACK 123 AUDIO
    TITLE "0:"
    INDEX 01 02:20:50
  TRACK 124 AUDIO
    TITLE "39:cjc024_6309"
    INDEX 01 02:21:35
  TRACK 125 AUDIO
    TITLE "0:"
    INDEX 01 02:22:54
  TRACK 126 AUDIO
    TITLE "38:cjc024_6310"
    INDEX 01 02:23:19
  TRACK 127 AUDIO
    TITLE "0:"
    INDEX 01 02:24:32
  TRACK 128 AUDIO
    TITLE "39:cjc024_6311"
    INDEX 01 02:25:20
  TRACK 129 AUDIO
    TITLE "0:"
    INDEX 01 02:26:29
  TRACK 130 AUDIO
    TITLE "38:cjc024_6312"
    INDEX 01 02:26:66
  TRACK 131 AUDIO
    TITLE "0:"
    INDEX 01 02:28:10
  TRACK 132 AUDIO
    TITLE "39:cjc024_6313"
    INDEX 01 02:28:71
  TRACK 133 AUDIO
    TITLE "0:"
    INDEX 01 02:30:29
  TRACK 134 AUDIO
    TITLE "38:cjc024_6314"
    INDEX 01 02:30:66
  TRACK 135 AUDIO
    TITLE "0:"
    INDEX 01 02:32:22
  TRACK 136 AUDIO
    TITLE "39:cjc024_6315"
    INDEX 01 02:33:05
  TRACK 137 AUDIO
    TITLE "0:"
    INDEX 01 02:34:52
  TRACK 138 AUDIO
    TITLE "38:cjc024_6316"
    INDEX 01 02:35:16
  TRACK 139 AUDIO
    TITLE "0:"
    INDEX 01 02:36:31
  TRACK 140 AUDIO
    TITLE "39:cjc024_6317"
    INDEX 01 02:37:19
  TRACK 141 AUDIO
    TITLE "0:"
    INDEX 01 02:38:61
  TRACK 142 AUDIO
    TITLE "38:cjc024_6318"
    INDEX 01 02:39:24
  TRACK 143 AUDIO
    TITLE "0:"
    INDEX 01 02:40:23
  TRACK 144 AUDIO
    TITLE "39:cjc024_6319"
    INDEX 01 02:41:13
  TRACK 145 AUDIO
    TITLE "0:"
    INDEX 01 02:42:32
  TRACK 146 AUDIO
    TITLE "38:cjc024_6320"
    INDEX 01 02:42:71
  TRACK 147 AUDIO
    TITLE "0:"
    INDEX 01 02:44:13
